<?xml version="1.0" standalone="no"?>
<!DOCTYPE svg PUBLIC "-//W3C//DTD SVG 1.1//EN" "http://www.w3.org/Graphics/SVG/1.1/DTD/svg11.dtd" >
<!--
2013-9-30: Created.
-->
<svg>
<metadata>
Created by iconfont
</metadata>
<defs>

<font id="iconfont" horiz-adv-x="1024" >
  <font-face
    font-family="iconfont"
    font-weight="500"
    font-stretch="normal"
    units-per-em="1024"
    ascent="896"
    descent="-128"
  />
    <missing-glyph />
    
    <glyph glyph-name="douban" unicode="&#58917;" d="M512 394m-421.875 0a421.875 421.875 0 1 1 843.75 0 421.875 421.875 0 1 1-843.75 0ZM613.37053594 473.61383905c-33.75 0.30133905-67.5 0.0803573-101.24999999 0.08035731-34.49330337 0-68.96651825 0.20089326-103.4397323-0.08035731-33.75-0.2611604-49.6205354-16.33258906-50.16294635-50.22321432-0.22098175-14.96651826-0.36160702-29.97321433 0.06026797-44.93973175 0.84375-29.7924104 17.31696433-47.00892892 46.78794636-47.18973203 70.3727677-0.46205364 140.76562473-0.421875 211.13839242 0 28.62723203 0.1607146 45.50223202 16.67410674 46.94866095 44.95982108 0.84375 16.3727677 0.6830354 32.8258927 0.1607146 49.21874973-1.0044646 32.16294663-17.4575896 47.91294608-50.22321433 48.17410729z m14.10267811-84.59598175c-0.72321406-16.07142864-6.12723175-21.89732135-22.33928568-22.33928567-22.25892837-0.62276825-44.53794608-0.20089326-66.79687444-0.20089325h-28.02455393c-29.4508927 0-58.9017854-0.20089326-88.35267892 0.06026798-22.76116067 0.20089326-27.3415177 5.08258933-27.66294608 28.04464325-0.12053595 7.83482108-0.421875 15.72991094 0.14062527 23.54464269 0.98437527 13.52008933 6.4888396 19.78794635 20.18973203 19.88839298 63.94419608 0.44196433 127.86830365 0.44196433 191.81249973 0.04017865 14.86607163-0.0803573 20.25-6.26785702 21.03348202-21.21428595 0.48214297-9.24107135 0.44196433-18.5625 0-27.82366068zM664.33705365 250.34151826000004c-17.23660702 0.20089326-34.49330337-0.10044663-51.72991039 0.14062445-4.4799104 0.06026797-8.9397323 1.30580364-14.66517921 2.20982162 3.61607107 6.9107146 6.14732108 11.9732146 8.87946432 16.93526797 2.75223175 5.02232136 5.68526826 9.92410674 8.53794663 14.86607163 4.27901798 7.49330337 4.92187473 14.90625027-0.90401798 21.89732135-8.63839325 10.42633906-21.53571433 8.95982163-30.17410675-4.31919662-8.55803594-13.17857163-16.2924104-26.9196427-23.7857146-40.7410719-4.19866067-7.77455393-9.4419646-11.390625-18.68303594-11.10937446a1266.52901797 1266.52901797 0 0 1-62.51785647 0.06026798c-8.23660674-0.18080393-13.27901825 2.81249973-17.15625056 9.94419608a826.47321433 826.47321433 0 0 1-22.6205354 38.93303594c-8.2767854 13.45982136-16.21205392 16.83482135-25.95535757 11.95312446-10.98883933-5.50446433-12.95758905-15.1875-5.54464298-29.18973149 4.96205337-9.32142864 10.3861604-18.4017854 17.85937527-31.54017919h-45.3214281c-10.0446427 0-20.12946406 0.40178567-30.15401825-0.24107108-11.85267865-0.74330337-18.4017854-6.97098175-18.88392837-16.55357163-0.52232163-10.44642837 6.44866094-17.27678567 19.30580337-18.40178539 5.00223203-0.44196433 10.0446427-0.18080393 15.06696406-0.18080392h288.86383987c2.8727677 0 5.7455354-0.04017865 8.63839242 0 18.34151826 0.3415177 26.8392854 5.72544608 27.20089325 17.23660702 0.40178567 11.87276798-8.0959823 17.8794646-26.25669663 18.08035785zM377.20089326 518.91517866c44.5580354-0.1607146 89.11607163-0.04017865 133.65401769-0.06026799h86.20312445c18.68303594 0.02008933 37.3861604-0.40178567 56.04910786 0.34151771 13.13839297 0.5022323 19.68749973 7.57366067 19.0848208 18.24107162-0.54241095 9.68303567-7.03124973 15.58928567-18.70312446 16.83482135-2.85267837 0.30133905-5.7455354 0.14062527-8.63839324 0.14062528-89.07589298 0-178.15178594 0.04017865-267.24776743-0.04017865-19.68749973-0.02008933-28.28571433-6.02678595-27.72321487-18.68303595 0.5022323-11.69196405 8.19642892-16.69419608 27.3214292-16.77455338z"  horiz-adv-x="1024" />

    
    <glyph glyph-name="angle_right" unicode="&#58880;" d="M635.385695 347.429q0-7.429-5.714-13.143L363.385695 68q-5.714-5.714-13.143-5.714T337.099695 68l-28.571 28.571q-5.714 5.714-5.714 13.143t5.714 13.143l224.571 224.571L308.528695 571.999q-5.714 5.714-5.714 13.143t5.714 13.143l28.571 28.571q5.714 5.714 13.143 5.714T363.385695 626.856L629.671695 360.57Q635.385695 354.856 635.385695 347.427z"  horiz-adv-x="1024" />

    
    <glyph glyph-name="angle_up" unicode="&#58881;" d="M797.286 219.429q0-7.429-5.714-13.143l-28.571-28.571q-5.714-5.714-13.143-5.714t-13.143 5.714L512.144 402.286 287.573 177.715q-5.714-5.714-13.143-5.714t-13.143 5.714l-28.571 28.571q-5.714 5.714-5.714 13.143t5.714 13.143l266.286 266.286q5.714 5.714 13.143 5.714t13.143-5.714l266.286-266.286q5.714-5.714 5.714-13.143z"  horiz-adv-x="1024" />

    
    <glyph glyph-name="angle_left" unicode="&#58882;" d="M595.772485 585.143q0-7.429-5.714-13.143L365.487485 347.429l224.571-224.571q5.714-5.714 5.714-13.143t-5.714-13.143l-28.571-28.571q-5.714-5.714-13.143-5.714t-13.143 5.714L268.915485 334.287q-5.714 5.714-5.714 13.143t5.714 13.143l266.286 266.286q5.714 5.714 13.143 5.714t13.143-5.714l28.571-28.571q5.714-5.714 5.714-13.143z"  horiz-adv-x="1024" />

    
    <glyph glyph-name="arrow_down" unicode="&#58883;" d="M957.071 420.571q0-30.286-21.143-51.429l-372-372.571q-22.286-21.143-52-21.143-30.286 0-51.429 21.143l-372 372.571q-21.714 20.571-21.714 51.429 0 30.286 21.714 52l42.286 42.857q22.286 21.143 52 21.143 30.286 0 51.429-21.143l168-168V749.714q0 29.714 21.714 51.429t51.429 21.714H548.5q29.714 0 51.429-21.714t21.714-51.429v-402.286l168 168q21.143 21.143 51.429 21.143 29.714 0 52-21.143l42.857-42.857q21.143-22.286 21.143-52z"  horiz-adv-x="1024" />

    
    <glyph glyph-name="angle_down" unicode="&#58884;" d="M797.286 475.429q0-7.429-5.714-13.143L525.286 196q-5.714-5.714-13.143-5.714T499 196L232.714 462.286Q227 468 227 475.429t5.714 13.143l28.571 28.571q5.714 5.714 13.143 5.714t13.143-5.714l224.571-224.571 224.571 224.571q5.714 5.714 13.143 5.714t13.143-5.714l28.571-28.571q5.714-5.714 5.714-13.143z"  horiz-adv-x="1024" />

    
    <glyph glyph-name="arrow_left" unicode="&#58885;" d="M877.714 384v-73.143q0-30.286-18.571-51.714t-48.286-21.429H408.571l167.429-168q21.714-20.571 21.714-51.429T576-33.144l-42.857-43.429Q512-97.716 481.714-97.716q-29.714 0-52 21.143l-372 372.571q-21.143 21.143-21.143 51.429 0 29.714 21.143 52l372 371.429q21.714 21.714 52 21.714 29.714 0 51.429-21.714L576 728.57q21.714-21.714 21.714-52t-21.714-52L408.571 457.141h402.286q29.714 0 48.286-21.429t18.571-51.714z"  horiz-adv-x="1024" />

    
    <glyph glyph-name="arrow_up" unicode="&#58886;" d="M957.071 341.143q0-29.143-21.143-51.429l-42.857-42.857q-21.714-21.714-52-21.714-30.857 0-51.429 21.714l-168 167.429V12q0-29.714-21.429-48.286t-51.714-18.571h-73.143q-30.286 0-51.714 18.571T402.213 12V414.286l-168-167.429q-20.571-21.714-51.429-21.714t-51.429 21.714l-42.857 42.857q-21.714 21.714-21.714 51.429 0 30.286 21.714 52l372 372q20 21.143 51.429 21.143 30.857 0 52-21.143l372-372q21.143-22.286 21.143-52z"  horiz-adv-x="1024" />

    
    <glyph glyph-name="calendar_empty" unicode="&#58887;" d="M107.353035-54.857h804.571V530.286H107.353035v-585.143zM326.781035 640V804.571q0 8-5.143 13.143t-13.143 5.143h-36.571q-8 0-13.143-5.143t-5.143-13.143V640q0-8 5.143-13.143t13.143-5.143h36.571q8 0 13.143 5.143T326.781035 640z m438.858 0V804.571q0 8-5.143 13.143t-13.143 5.143h-36.571q-8 0-13.143-5.143t-5.143-13.143V640q0-8 5.143-13.143t13.143-5.143h36.571q8 0 13.143 5.143T765.639035 640z m219.428 36.571v-731.429q0-29.714-21.714-51.429t-51.429-21.714H107.353035q-29.714 0-51.429 21.714T34.210035-54.858V676.571Q34.210035 706.285 55.924035 728t51.429 21.714h73.143V804.571q0 37.714 26.857 64.571T271.924035 895.999h36.571q37.714 0 64.571-26.857t26.857-64.571v-54.857h219.429V804.571q0 37.714 26.857 64.571T710.780035 895.999h36.571q37.714 0 64.571-26.857t26.857-64.571v-54.857h73.143q29.714 0 51.429-21.714t21.714-51.429z"  horiz-adv-x="1024" />

    
    <glyph glyph-name="archive" unicode="&#58888;" d="M621.714 420.571q0 14.857-10.857 25.714t-25.714 10.857H438.857q-14.857 0-25.714-10.857t-10.857-25.714 10.857-25.714T438.857 384h146.286q14.857 0 25.714 10.857t10.857 25.714z m329.143 109.715v-548.571q0-14.857-10.857-25.714t-25.714-10.857H109.715q-14.857 0-25.714 10.857t-10.857 25.714V530.286q0 14.857 10.857 25.714t25.714 10.857h804.571q14.857 0 25.714-10.857t10.857-25.714z m36.572 256V640q0-14.857-10.857-25.714t-25.714-10.857H73.144q-14.857 0-25.714 10.857T36.573 640V786.286q0 14.857 10.857 25.714t25.714 10.857h877.714q14.857 0 25.714-10.857t10.857-25.714z"  horiz-adv-x="1024" />

    
    <glyph glyph-name="arrow_right" unicode="&#58889;" d="M841.143 347.429q0-30.857-21.143-52l-372-372q-22.286-21.143-52-21.143-29.143 0-51.429 21.143l-42.857 42.857Q280-12 280 18.286t21.714 52l167.429 167.429H66.857q-29.714 0-48.286 21.429T0 310.858v73.143q0 30.286 18.571 51.714t48.286 21.429h402.286l-167.429 168Q280 645.715 280 676.573t21.714 51.429l42.857 42.857q21.714 21.714 51.429 21.714 30.286 0 52-21.714l372-372q21.143-20 21.143-51.429z"  horiz-adv-x="1024" />

    
    <glyph glyph-name="double_angle_left" unicode="&#58890;" d="M534.81425 109.714q0-7.429-5.714-13.143L500.52925 68q-5.714-5.714-13.143-5.714T474.24325 68L207.95725 334.286q-5.714 5.714-5.714 13.143t5.714 13.143l266.286 266.286q5.714 5.714 13.143 5.714t13.143-5.714l28.571-28.571q5.714-5.714 5.714-13.143t-5.714-13.143L304.52925 347.43l224.571-224.571q5.714-5.714 5.714-13.143z m219.428 0q0-7.429-5.714-13.143L719.95725 68q-5.714-5.714-13.143-5.714T693.67125 68L427.38525 334.286q-5.714 5.714-5.714 13.143t5.714 13.143l266.286 266.286q5.714 5.714 13.143 5.714t13.143-5.714L748.52825 598.287q5.714-5.714 5.714-13.143T748.52825 572.001L523.95725 347.43 748.52825 122.859q5.714-5.714 5.714-13.143z"  horiz-adv-x="1024" />

    
    <glyph glyph-name="double_angle_down" unicode="&#58891;" d="M797.286 402.286q0-7.429-5.714-13.143L525.286 122.857q-5.714-5.714-13.143-5.714T499 122.857L232.714 389.143Q227 394.857 227 402.286t5.714 13.143L261.285 444q5.714 5.714 13.143 5.714T287.571 444l224.571-224.571L736.713 444q5.714 5.714 13.143 5.714T762.999 444l28.571-28.571q5.714-5.714 5.714-13.143z m0 219.428q0-7.429-5.714-13.143L525.286 342.285q-5.714-5.714-13.143-5.714T499 342.285L232.714 608.571Q227 614.285 227 621.714t5.714 13.143l28.571 28.571q5.714 5.714 13.143 5.714t13.143-5.714l224.571-224.571 224.571 224.571q5.714 5.714 13.143 5.714t13.143-5.714l28.571-28.571q5.714-5.714 5.714-13.143z"  horiz-adv-x="1024" />

    
    <glyph glyph-name="comment_alt" unicode="&#58892;" d="M512 676.571q-116.571 0-218-39.714T132.857 529.714 73.143 384q0-64 40.857-122t115.143-100.286l49.714-28.571-15.429-54.857q-13.714-52-40-98.286 86.857 36 157.143 97.714l24.571 21.714 32.571-3.429q39.429-4.571 74.286-4.571 116.571 0 218 39.714t161.143 107.143 59.714 145.714-59.714 145.714-161.143 107.143-218 39.714zM1024 384q0-99.429-68.571-183.714T769.143 67.143 512 18.286q-40 0-82.857 4.571-113.143-100-262.857-138.286-28-8-65.143-12.571h-2.857q-8.571 0-15.429 6t-9.143 15.714v0.571q-1.714 2.286-0.286 6.857t1.143 5.714 2.571 5.429l3.429 5.143 4 4.857 4.571 5.143q4 4.571 17.714 19.714t19.714 21.714 17.714 22.571 18.571 29.143 15.429 33.714 14.857 43.429Q103.427 148.57 51.712 223.427T-0.002 383.998q0 99.429 68.571 183.714t186.286 133.143 257.143 48.857 257.143-48.857 186.286-133.143 68.571-183.714z"  horiz-adv-x="1024" />

    
    <glyph glyph-name="double_angle_right" unicode="&#58893;" d="M559.5 347.429q0-7.429-5.714-13.143L287.5 68q-5.714-5.714-13.143-5.714T261.214 68l-28.571 28.571q-5.714 5.714-5.714 13.143t5.714 13.143l224.571 224.571L232.643 571.999q-5.714 5.714-5.714 13.143t5.714 13.143l28.571 28.571q5.714 5.714 13.143 5.714T287.5 626.856L553.786 360.57Q559.5 354.856 559.5 347.427z m219.429 0q0-7.429-5.714-13.143L506.929 68q-5.714-5.714-13.143-5.714T480.643 68l-28.571 28.571q-5.714 5.714-5.714 13.143t5.714 13.143l224.571 224.571-224.571 224.571q-5.714 5.714-5.714 13.143t5.714 13.143l28.571 28.571q5.714 5.714 13.143 5.714t13.143-5.714L773.215 360.57q5.714-5.714 5.714-13.143z"  horiz-adv-x="1024" />

    
    <glyph glyph-name="double_angle_up" unicode="&#58894;" d="M788.776745 146.286q0-7.429-5.714-13.143l-28.571-28.571q-5.714-5.714-13.143-5.714t-13.143 5.714L503.634745 329.143 279.063745 104.572q-5.714-5.714-13.143-5.714t-13.143 5.714l-28.571 28.571q-5.714 5.714-5.714 13.143t5.714 13.143l266.286 266.286q5.714 5.714 13.143 5.714t13.143-5.714l266.286-266.286q5.714-5.714 5.714-13.143z m0 219.428q0-7.429-5.714-13.143L754.491745 324q-5.714-5.714-13.143-5.714T728.205745 324L503.634745 548.571 279.063745 324q-5.714-5.714-13.143-5.714T252.777745 324l-28.571 28.571q-5.714 5.714-5.714 13.143t5.714 13.143l266.286 266.286q5.714 5.714 13.143 5.714t13.143-5.714l266.286-266.286q5.714-5.714 5.714-13.143z"  horiz-adv-x="1024" />

    
    <glyph glyph-name="folder_close_alt" unicode="&#58895;" d="M914.214 146.286V548.572q0 22.857-16 38.857t-38.857 16H457.071q-22.857 0-38.857 16t-16 38.857v36.571q0 22.857-16 38.857t-38.857 16H164.5q-22.857 0-38.857-16t-16-38.857v-548.571q0-22.857 16-38.857t38.857-16h694.857q22.857 0 38.857 16t16 38.857z m73.143 402.285v-402.286q0-52.571-37.714-90.286t-90.286-37.714H164.5q-52.571 0-90.286 37.714T36.5 146.285V694.856q0 52.571 37.714 90.286T164.5 822.856h182.857q52.571 0 90.286-37.714t37.714-90.286v-18.286h384q52.571 0 90.286-37.714t37.714-90.286z"  horiz-adv-x="1024" />

    
    <glyph glyph-name="eye_open" unicode="&#58896;" d="M950.86 347.429Q864.003 482.286 733.146 549.143 768.003 489.714 768.003 420.572q0-105.714-75.143-180.857T512.003 164.572t-180.857 75.143T256.003 420.572q0 69.143 34.857 128.571Q160.003 482.286 73.146 347.429q76-117.143 190.571-186.571T512.003 91.429t248.286 69.429 190.571 186.571zM539.432 566.857q0 11.429-8 19.429t-19.429 8q-71.429 0-122.571-51.143t-51.143-122.571q0-11.429 8-19.429t19.429-8 19.429 8 8 19.429q0 49.143 34.857 84t84 34.857q11.429 0 19.429 8t8 19.429zM1024.003 347.429Q1024.003 328 1012.574 308q-80-131.429-215.143-210.571t-285.429-79.143-285.429 79.429T11.43 308.001q-11.429 20-11.429 39.429t11.429 39.429q80 130.857 215.143 210.286t285.429 79.429 285.429-79.429 215.143-210.286q11.429-20 11.429-39.429z"  horiz-adv-x="1024" />

    
    <glyph glyph-name="folder_open_alt" unicode="&#58897;" d="M1017.714 364q0 20-30.286 20H365.714q-22.857 0-48.857-12.286t-40.857-30L108 134.285q-10.286-13.714-10.286-22.857 0-20 30.286-20h621.714q22.857 0 49.143 12.571t40.571 30.286l168 207.429q10.286 12.571 10.286 22.286z m-652 93.143h438.857v91.429q0 22.857-16 38.857t-38.857 16H420.571q-22.857 0-38.857 16t-16 38.857v36.571q0 22.857-16 38.857t-38.857 16H128q-22.857 0-38.857-16t-16-38.857v-487.429l146.286 180q25.143 30.286 66.286 50t80 19.714zM1090.857 364q0-35.429-26.286-68.571L896 88q-24.571-30.286-66.286-50t-80-19.714H128q-52.571 0-90.286 37.714T0 146.286V694.857q0 52.571 37.714 90.286T128 822.857h182.857q52.571 0 90.286-37.714t37.714-90.286v-18.286h310.857q52.571 0 90.286-37.714t37.714-90.286v-91.429h109.714q30.857 0 56.571-14t38.286-40.286q8.571-18.286 8.571-38.857z"  horiz-adv-x="1097" />

    
    <glyph glyph-name="heart" unicode="&#58898;" d="M512-54.857q-14.857 0-25.143 10.286l-356.571 344q-5.714 4.571-15.714 14.857t-31.714 37.429-38.857 55.714-30.571 69.143T0.001 555.429Q0.001 681.143 72.572 752t200.571 70.857q35.429 0 72.286-12.286T414 777.428t54.571-39.143T512 699.428q20.571 20.571 43.429 38.857T610 777.428t68.571 33.143 72.286 12.286q128 0 200.571-70.857t72.571-196.571q0-126.286-130.857-257.143l-356-342.857q-10.286-10.286-25.143-10.286z"  horiz-adv-x="1024" />

    
    <glyph glyph-name="music" unicode="&#58899;" d="M877.714 768v-640q0-28.571-19.429-50.857t-49.143-34.571-59.143-18.286-55.143-6-55.143 6-59.143 18.286-49.143 34.571T511.998 128t19.429 50.857 49.143 34.571 59.143 18.286 55.143 6q60 0 109.714-22.286V522.285L365.713 386.856v-405.143q0-28.571-19.429-50.857t-49.143-34.571-59.143-18.286-55.143-6-55.143 6-59.143 18.286-49.143 34.571-19.429 50.857 19.429 50.857 49.143 34.571 59.143 18.286 55.143 6q60 0 109.714-22.286V621.712q0 17.714 10.857 32.286t28 20.286L806.855 820.57q6.857 2.286 16 2.286 22.857 0 38.857-16t16-38.857z"  horiz-adv-x="1024" />

    
    <glyph glyph-name="github" unicode="&#58900;" d="M438.857 822.857q119.429 0 220.286-58.857t159.714-159.714T877.714 384q0-143.429-83.714-258T577.714-32.571q-15.429-2.857-22.857 4t-7.429 17.143q0 1.714 0.286 43.714t0.286 76.857q0 55.429-29.714 81.143 32.571 3.429 58.571 10.286t53.714 22.286 46.286 38 30.286 60 11.714 86q0 68-45.143 117.714 21.143 52-4.571 116.571-16 5.143-46.286-6.286t-52.571-25.143L548.572 596q-53.143 14.857-109.714 14.857T329.144 596q-9.143 6.286-24.286 15.429t-47.714 22-48.571 7.714q-25.714-64.571-4.571-116.571-45.143-49.714-45.143-117.714 0-48.571 11.714-85.714t30-60 46-38.286 53.714-22.286 58.571-10.286q-22.286-20.571-28-58.857-12-5.714-25.714-8.571t-32.571-2.857-37.429 12.286-31.714 35.714q-10.857 18.286-27.714 29.714t-28.286 13.714l-11.429 1.714q-12 0-16.571-2.571t-2.857-6.571 5.143-8 7.429-6.857l4-2.857q12.571-5.714 24.857-21.714t18-29.143l5.714-13.143q7.429-21.714 25.143-35.143t38.286-17.143 39.714-4 31.714 2l13.143 2.286q0-21.714 0.286-50.571t0.286-31.143q0-10.286-7.429-17.143t-22.857-4q-132.571 44-216.286 158.571t-83.714 258q0 119.429 58.857 220.286t159.714 159.714 220.286 58.857zM166.286 192.571q1.714 4-4 6.857-5.714 1.714-7.429-1.143-1.714-4 4-6.857 5.143-3.429 7.429 1.143zM184 173.143q4 2.857-1.143 9.143-5.714 5.143-9.143 1.714-4-2.857 1.143-9.143 5.714-5.714 9.143-1.714z m17.143-25.714q5.143 4 0 10.857-4.571 7.429-9.714 3.429-5.143-2.857 0-10.286t9.714-4z m24-24q4.571 4.571-2.286 10.857Q216 141.143 211.428 136q-5.143-4.571 2.286-10.857 6.857-6.857 11.429-1.714z m32.571-14.286q1.714 6.286-7.429 9.143-8.571 2.286-10.857-4t7.429-8.571q8.571-3.429 10.857 3.429z m36-2.857q0 7.429-9.714 6.286-9.143 0-9.143-6.286 0-7.429 9.714-6.286 9.143 0 9.143 6.286zM326.857 112q-1.143 6.286-10.286 5.143-9.143-1.714-8-8.571t10.286-4.571 8 8z"  horiz-adv-x="1024" />

    
    <glyph glyph-name="home" unicode="&#58901;" d="M841.071 329.143v-274.286q0-14.857-10.857-25.714T804.5 18.286H585.071V237.715H438.785v-219.429H219.356q-14.857 0-25.714 10.857t-10.857 25.714V329.143q0 0.571 0.286 1.714t0.286 1.714l328.571 270.857 328.571-270.857q0.571-1.143 0.571-3.429zM968.5 368.571l-35.429-42.286q-4.571-5.143-12-6.286h-1.714q-7.429 0-12 4L511.928 653.713 116.499 323.999q-6.857-4.571-13.714-4-7.429 1.143-12 6.286l-35.429 42.286q-4.571 5.714-4 13.429t6.286 12.286l410.857 342.286q18.286 14.857 43.429 14.857t43.429-14.857l139.429-116.571V731.43q0 8 5.143 13.143t13.143 5.143h109.714q8 0 13.143-5.143t5.143-13.143v-233.143l125.143-104q5.714-4.571 6.286-12.286t-4-13.429z"  horiz-adv-x="1024" />

    
    <glyph glyph-name="picture" unicode="&#58902;" d="M365.714 566.857q0-45.714-32-77.714t-77.714-32-77.714 32-32 77.714 32 77.714 77.714 32 77.714-32 32-77.714z m585.143-219.428v-256H146.286V201.143L329.143 384l91.429-91.429 292.571 292.571z m54.857 402.285H91.428q-7.429 0-12.857-5.429t-5.429-12.857v-694.857q0-7.429 5.429-12.857t12.857-5.429h914.286q7.429 0 12.857 5.429t5.429 12.857V731.428q0 7.429-5.429 12.857t-12.857 5.429z m91.429-18.285v-694.857q0-37.714-26.857-64.571t-64.571-26.857H91.429q-37.714 0-64.571 26.857T0.001 36.572V731.429q0 37.714 26.857 64.571t64.571 26.857h914.286q37.714 0 64.571-26.857t26.857-64.571z"  horiz-adv-x="1097" />

    
    <glyph glyph-name="remove_sign" unicode="&#58903;" d="M656.571 254.857q0 14.857-10.857 25.714L542.285 384l103.429 103.429q10.857 10.857 10.857 25.714 0 15.429-10.857 26.286l-51.429 51.429q-10.857 10.857-26.286 10.857-14.857 0-25.714-10.857L438.856 487.429 335.427 590.858q-10.857 10.857-25.714 10.857-15.429 0-26.286-10.857l-51.429-51.429q-10.857-10.857-10.857-26.286 0-14.857 10.857-25.714L335.427 384 231.998 280.571q-10.857-10.857-10.857-25.714 0-15.429 10.857-26.286l51.429-51.429q10.857-10.857 26.286-10.857 14.857 0 25.714 10.857l103.429 103.429 103.429-103.429q10.857-10.857 25.714-10.857 15.429 0 26.286 10.857l51.429 51.429q10.857 10.857 10.857 26.286zM877.714 384q0-119.429-58.857-220.286T659.143 4t-220.286-58.857T218.571 4 58.857 163.714 0 384t58.857 220.286T218.571 764t220.286 58.857T659.143 764t159.714-159.714T877.714 384z"  horiz-adv-x="1024" />

    
    <glyph glyph-name="search" unicode="&#58904;" d="M692.496475 420.571q0 105.714-75.143 180.857t-180.857 75.143-180.857-75.143-75.143-180.857 75.143-180.857 180.857-75.143 180.857 75.143 75.143 180.857z m292.571-475.428q0-29.714-21.714-51.429T911.924475-128q-30.857 0-51.429 21.714l-196 195.429q-102.286-70.857-228-70.857-81.714 0-156.286 31.714t-128.571 85.714-85.714 128.571T34.210475 420.571t31.714 156.286 85.714 128.571 128.571 85.714 156.286 31.714 156.286-31.714 128.571-85.714 85.714-128.571 31.714-156.286q0-125.714-70.857-228l196-196q21.143-21.143 21.143-51.429z"  horiz-adv-x="1024" />

    
    <glyph glyph-name="remove_circle" unicode="&#58905;" d="M626.857 279.429L543.428 196q-5.714-5.714-13.143-5.714T517.142 196l-78.286 78.286L360.57 196q-5.714-5.714-13.143-5.714T334.284 196l-83.429 83.429q-5.714 5.714-5.714 13.143t5.714 13.143l78.286 78.286-78.286 78.286q-5.714 5.714-5.714 13.143t5.714 13.143l83.429 83.429q5.714 5.714 13.143 5.714t13.143-5.714l78.286-78.286 78.286 78.286q5.714 5.714 13.143 5.714t13.143-5.714l83.429-83.429q5.714-5.714 5.714-13.143t-5.714-13.143l-78.286-78.286 78.286-78.286q5.714-5.714 5.714-13.143t-5.714-13.143zM749.714 384q0 84.571-41.714 156T594.857 653.143t-156 41.714-156-41.714T169.714 540 128 384t41.714-156 113.143-113.143 156-41.714 156 41.714T708 228t41.714 156z m128 0q0-119.429-58.857-220.286T659.143 4t-220.286-58.857T218.571 4 58.857 163.714 0 384t58.857 220.286T218.571 764t220.286 58.857T659.143 764t159.714-159.714T877.714 384z"  horiz-adv-x="1024" />

    
    <glyph glyph-name="rss" unicode="&#58906;" d="M320.37619 128q0-45.714-32-77.714t-77.714-32-77.714 32T100.94819 128t32 77.714 77.714 32 77.714-32 32-77.714zM612.94719 57.714q1.143-16-9.714-27.429-10.286-12-26.857-12h-77.143q-14.286 0-24.571 9.429t-11.429 23.714q-12.571 130.857-105.429 223.714T134.09019 380.571Q119.80419 381.714 110.37619 392T100.94719 416.571v77.143q0 16.571 12 26.857 9.714 9.714 24.571 9.714h2.857q91.429-7.429 174.857-46t148-103.714q65.143-64.571 103.714-148t46-174.857z m292.571-1.143q1.143-15.429-10.286-26.857-10.286-11.429-26.286-11.429h-81.714q-14.857 0-25.429 10t-11.143 24.286Q743.80319 175.428 692.94619 286T560.66019 478t-192 132.286-233.429 58.286q-14.286 0.571-24.286 11.143t-10 24.857v81.714q0 16 11.429 26.286Q122.66019 822.858 137.51719 822.858h1.714q149.714-7.429 286.571-68.571t243.143-168q106.857-106.286 168-243.143t68.571-286.571z"  horiz-adv-x="1024" />

    
    <glyph glyph-name="tag" unicode="&#58907;" d="M256 640q0 30.286-21.429 51.714t-51.714 21.429-51.714-21.429T109.714 640t21.429-51.714 51.714-21.429 51.714 21.429T256 640z m609.714-329.143q0-30.286-21.143-51.429L564-21.715q-22.286-21.143-52-21.143-30.286 0-51.429 21.143L52 387.428q-21.714 21.143-36.857 57.714T0 511.999V749.713q0 29.714 21.714 51.429t51.429 21.714h237.714q30.286 0 66.857-15.143T436 770.856l408.571-408q21.143-22.286 21.143-52z"  horiz-adv-x="1024" />

    
    <glyph glyph-name="tags" unicode="&#58908;" d="M256 640q0 30.286-21.429 51.714t-51.714 21.429-51.714-21.429T109.714 640t21.429-51.714 51.714-21.429 51.714 21.429T256 640z m609.714-329.143q0-30.286-21.143-51.429L564-21.715q-22.286-21.143-52-21.143-30.286 0-51.429 21.143L52 387.428q-21.714 21.143-36.857 57.714T0 511.999V749.713q0 29.714 21.714 51.429t51.429 21.714h237.714q30.286 0 66.857-15.143T436 770.856l408.571-408q21.143-22.286 21.143-52z m219.429 0q0-30.286-21.143-51.429L783.429-21.715q-22.286-21.143-52-21.143-20.571 0-33.714 8t-30.286 25.714L936 259.427q21.143 21.143 21.143 51.429 0 29.714-21.143 52l-408.571 408q-21.714 21.714-58.286 36.857t-66.857 15.143h128q30.286 0 66.857-15.143t58.286-36.857l408.571-408q21.143-22.286 21.143-52z"  horiz-adv-x="1097" />

    
    <glyph glyph-name="twitter" unicode="&#58909;" d="M962.214 662.857q-38.286-56-92.571-95.429 0.571-8 0.571-24 0-74.286-21.714-148.286t-66-142-105.429-120.286-147.429-83.429-184.571-31.143q-154.857 0-283.429 82.857 20-2.286 44.571-2.286 128.571 0 229.143 78.857-60 1.143-107.429 36.857t-65.143 91.143q18.857-2.857 34.857-2.857 24.571 0 48.571 6.286-64 13.143-106 63.714t-42 117.429v2.286q38.857-21.714 83.429-23.429-37.714 25.143-60 65.714t-22.286 88q0 50.286 25.143 93.143 69.143-85.143 168.286-136.286t212.286-56.857q-4.571 21.714-4.571 42.286 0 76.571 54 130.571t130.571 54q80 0 134.857-58.286 62.286 12 117.143 44.571-21.143-65.714-81.143-101.714 53.143 5.714 106.286 28.571z"  horiz-adv-x="1024" />

    
    <glyph glyph-name="globe" unicode="&#58910;" d="M438.857 822.857q119.429 0 220.286-58.857t159.714-159.714T877.714 384t-58.857-220.286T659.143 4t-220.286-58.857T218.571 4 58.857 163.714 0 384t58.857 220.286T218.571 764t220.286 58.857z m156.572-297.714q-1.143-0.571-5.429-5.429t-7.714-5.429q1.143 0 2.571 2.857t2.857 6.286 2 4q3.429 4 12.571 8.571 8 3.429 29.714 6.857 19.429 4.571 29.143-6.286-1.143 1.143 5.429 7.429t8.286 6.857q1.714 1.143 8.571 2.571t8.571 4.286l1.143 12.571q-6.857-0.571-10 4t-3.714 12q0-1.143-3.429-4.571 0 4-2.571 4.571t-6.571-0.571-5.143-0.571q-5.714 1.714-8.571 4.286t-4.571 9.429-2.286 8.571q-1.143 2.857-5.429 6.286t-5.429 5.714q-0.571 1.143-1.429 3.143t-1.714 3.714-2.286 3.143-3.143 1.429-4-2.857-4.286-5.714-2.571-2.857q-1.714 1.143-3.429 0.857t-2.571-0.571-2.571-1.714-2.857-2q-1.714-1.143-4.857-1.714t-4.857-1.143q8.571 2.857-0.571 6.286-5.714 2.286-9.143 1.714 5.143 2.286 4.286 6.857t-4.857 8h2.857q-0.571 2.286-4.857 4.857t-10 4.857-7.429 3.429q-4.571 2.857-19.429 5.429t-18.857 0.286q-2.857-3.429-2.571-6t2.286-8 2-7.143q0.571-3.429-3.143-7.429t-3.714-6.857q0-4 8-8.857t5.714-12.286q-1.714-4.571-9.143-9.143t-9.143-6.857q-2.857-4.571-0.857-10.571t6-9.429q1.143-1.143 0.857-2.286t-2-2.571-3.143-2.286-3.714-2l-1.714-1.143q-6.286-2.857-11.714 3.429t-7.714 14.857q-4 14.286-9.143 17.143-13.143 4.571-16.571-0.571-2.857 7.429-23.429 14.857-14.286 5.143-33.143 2.286 3.429 0.571 0 8.571-4 8.571-10.857 6.857 1.714 3.429 2.286 10t0.571 7.714q1.714 7.429 6.857 13.143 0.571 0.571 4 4.857t5.429 7.714 0.286 3.429q20-2.286 28.571 6.286 2.857 2.857 6.571 9.714t6 9.714q5.143 3.429 8 3.143t8.286-3.143 8.286-2.857q8-0.571 8.857 6.286t-4.286 11.429q6.857-0.571 1.714 9.714-2.286 4-4.571 5.143-6.857 2.286-15.429-2.857-4.571-2.286 1.143-4.571-0.571 0.571-5.429-6t-9.429-10-9.143 2.857q-0.571 0.571-3.143 7.714t-5.429 7.714q-4.571 0-9.143-8.571 1.714 4.571-6.286 8.571t-13.714 4.571q10.857 6.857-4.571 15.429-4 2.286-11.714 2.857t-11.143-2.286q-2.857-4-3.143-6.571t2.857-4.571 6-3.143 6.571-2.286 4.857-1.714q8-5.714 4.571-8-1.143-0.571-4.857-2t-6.571-2.571-3.429-2.286q-1.714-2.286 0-8t-1.143-8q-2.857 2.857-5.143 10t-4 9.429q4-5.143-14.286-3.429l-5.714 0.571q-2.286 0-9.143-1.143t-11.714-0.571-7.714 4.571q-2.286 4.571 0 11.429 0.571 2.286 2.286 1.143-2.286 1.714-6.286 5.429t-5.714 4.857q-26.286-8.571-53.714-23.429 3.429-0.571 6.857 0.571 2.857 1.143 7.429 3.714t5.714 3.143q19.429 8 24 4l2.857 2.857q8-9.143 11.429-14.286-4 2.286-17.143 0.571-11.429-3.429-12.571-6.857 4-6.857 2.857-10.286-2.286 1.714-6.571 5.714t-8.286 6.286-8.571 2.857q-9.143 0-12.571-0.571Q180 658.858 129.143 577.715q4-4 6.857-4.571 2.286-0.571 2.857-5.143t1.429-6.286 6.571 1.714q5.143-4.571 1.714-10.857 0.571 0.571 25.143-15.429 10.857-9.714 12-12 1.714-6.286-5.714-10.286-0.571 1.143-5.143 5.143t-5.143 2.286q-1.714-2.857 0.286-10.571t6-7.143q-4 0-5.429-9.143t-1.429-20.286-0.571-13.429l1.143-0.571q-1.714-6.857 3.143-19.714t12.286-11.143q-7.429-1.714 11.429-24.571 3.429-4.571 4.571-5.143 1.714-1.143 6.857-4.286t8.571-5.714 5.714-6q2.286-2.857 5.714-12.857t8-13.429q-1.143-3.429 5.429-11.429t6-13.143q-0.571 0-1.429-0.571t-1.429-0.571q1.714-4 8.857-8t8.857-7.429q0.571-1.714 1.143-5.714t1.714-6.286 4.571-1.143q1.143 11.429-13.714 35.429-8.571 14.286-9.714 16.571-1.714 2.857-3.143 8.857t-2.571 8.286q1.143 0 3.429-0.857t4.857-2 4.286-2.286 1.143-1.714q-1.714-4 1.143-10t6.857-10.571 9.714-10.857 6.857-7.429q3.429-3.429 8-11.143t0-7.714q5.143 0 11.429-6t9.714-11.143q2.857-4.571 4.571-14.857t2.857-13.714q1.143-4 4.857-7.714t7.143-5.429l9.143-4.571 7.429-4q2.857-1.143 10.571-6t12.286-6.571q5.714-2.286 9.143-2.286t8.286 1.429 7.714 2q8.571 1.143 16.571-8.571t12-12q20.571-10.857 31.429-6.286-1.143-0.571 0.286-4.286t4.571-8.857 5.143-8.286 3.143-4.857q2.857-3.429 10.286-8.571t10.286-8.571q3.429 2.286 4 5.143-1.714-4.571 4-11.429T504 147.431q8 1.714 8 18.286-17.714-8.571-28 10.286 0 0.571-1.429 3.143t-2.286 4.857-1.429 4.857 0 4.286 2.857 1.714q5.143 0 5.714 2t-1.143 7.143-2.286 7.429q-0.571 4.571-6.286 11.429t-6.857 8.571q-2.857-5.143-9.143-4.571t-9.143 5.143q0-0.571-0.857-3.143t-0.857-3.714q-7.429 0-8.571 0.571 0.571 1.714 1.429 10t2 12.857q0.571 2.286 3.143 6.857t4.286 8.286 2.286 7.143-2.571 5.429-10 1.429Q432 277.148 428 266.29q-0.571-1.714-1.714-6t-2.857-6.571-5.143-4q-4-1.714-13.714-1.143t-13.714 2.857q-7.429 4.571-12.857 16.571t-5.429 21.143q0 5.714 1.429 15.143t1.714 14.286-3.143 14q1.714 1.143 5.143 5.429t5.714 6q1.143 0.571 2.571 0.857t2.571 0 2.286 0.857 1.714 3.429q-0.571 0.571-2.286 1.714-1.714 1.714-2.286 1.714 4-1.714 16.286 0.857t15.714-0.857q8.571-6.286 12.571 1.143 0 0.571-1.429 5.429t-0.286 7.714q2.857-15.429 16.571-5.143 1.714-1.714 8.857-2.857t10-2.857q1.714-1.143 4-3.143t3.143-2.571 2.857 0.286 4.857 3.714q5.714-8 6.857-13.714 6.286-22.857 10.857-25.143 4-1.714 6.286-1.143t2.571 5.429 0 8-0.857 7.143l-0.571 4.571V349.72l-0.571 4.571q-8.571 1.714-10.571 6.857t0.857 10.571 8.571 10.571q0.571 0.571 4.571 2t8.857 3.714 7.143 4.571q12 10.857 8.571 20 4 0 6.286 5.143-0.571 0-2.857 1.714t-4.286 2.857-2.571 1.143q5.143 2.857 1.143 9.143 2.857 1.714 4.286 6.286t4.286 5.714q5.143-6.857 12-1.143 4.571 4.571 0.571 9.143 2.857 4 11.714 6t10.571 5.429q4-1.143 4.571 1.143t0.571 6.857 1.714 6.857q2.286 2.857 8.571 5.143t7.429 2.857l9.714 6.286q1.714 2.286 0 2.286 10.286-1.143 17.714 6.286 5.714 6.286-3.429 11.429 1.714 3.429-1.714 5.429t-8.571 3.143q1.714 0.571 6.571 0.286t6 0.857q8.571 5.714-4 9.143-9.714 2.857-24.571-6.857zM502.286 24Q620 44.571 702.857 132q-1.714 1.714-7.143 2.571t-7.143 2q-10.286 4-13.714 4.571 0.571 4-1.429 7.429t-4.571 5.143-7.143 4.571-6.286 4q-1.143 1.143-4 3.429t-4 3.143-4.286 2.571-4.857 1.143-5.714-0.571l-1.714-0.571q-1.714-0.571-3.143-1.429t-3.143-1.714-2.286-1.714 0-1.429q-12 9.714-20.571 12.571-2.857 0.571-6.286 3.143t-6 4-5.714 0.857-6.571-4q-2.857-2.857-3.429-8.571t-1.143-7.429q-4 2.857 0 10t1.143 10.571q-1.714 3.429-6 2.571t-6.857-2.571-6.571-4.857-5.143-3.714-4.857-3.143-4.857-4.286q-1.714-2.286-3.429-6.857t-2.857-6.286q-1.143 2.286-6.571 3.714t-5.429 3.143q1.143-5.714 2.286-20t2.857-21.714q4-17.714-6.857-27.429Q504 80.57 502.858 71.999q-2.286-12.571 6.857-14.857 0-4-4.571-11.714t-4-12.286q0-3.429 1.143-9.143z"  horiz-adv-x="1024" />

    
    <glyph glyph-name="time" unicode="&#58911;" d="M512 585.143v-256q0-8-5.143-13.143t-13.143-5.143H310.857q-8 0-13.143 5.143t-5.143 13.143v36.571q0 8 5.143 13.143T310.857 384h128V585.143q0 8 5.143 13.143t13.143 5.143h36.571q8 0 13.143-5.143T512 585.143zM749.714 384q0 84.571-41.714 156T594.857 653.143t-156 41.714-156-41.714T169.714 540 128 384t41.714-156 113.143-113.143 156-41.714 156 41.714T708 228t41.714 156z m128 0q0-119.429-58.857-220.286T659.143 4t-220.286-58.857T218.571 4 58.857 163.714 0 384t58.857 220.286T218.571 764t220.286 58.857T659.143 764t159.714-159.714T877.714 384z"  horiz-adv-x="1024" />

    
    <glyph glyph-name="keyboard" unicode="&#58912;" d="M219.429 228.571v-54.857q0-9.143-9.143-9.143h-54.857q-9.143 0-9.143 9.143v54.857q0 9.143 9.143 9.143h54.857q9.143 0 9.143-9.143z m73.142 146.286V320q0-9.143-9.143-9.143h-128q-9.143 0-9.143 9.143v54.857q0 9.143 9.143 9.143h128q9.143 0 9.143-9.143z m-73.142 146.286v-54.857q0-9.143-9.143-9.143h-54.857q-9.143 0-9.143 9.143v54.857q0 9.143 9.143 9.143h54.857q9.143 0 9.143-9.143z m585.142-292.572v-54.857q0-9.143-9.143-9.143H301.714q-9.143 0-9.143 9.143v54.857q0 9.143 9.143 9.143h493.714q9.143 0 9.143-9.143zM438.857 374.857V320q0-9.143-9.143-9.143h-54.857q-9.143 0-9.143 9.143v54.857q0 9.143 9.143 9.143h54.857q9.143 0 9.143-9.143z m-73.143 146.286v-54.857q0-9.143-9.143-9.143h-54.857q-9.143 0-9.143 9.143v54.857q0 9.143 9.143 9.143h54.857q9.143 0 9.143-9.143z m219.429-146.286V320q0-9.143-9.143-9.143h-54.857Q512 310.857 512 320v54.857q0 9.143 9.143 9.143H576q9.143 0 9.143-9.143zM512 521.143v-54.857q0-9.143-9.143-9.143H448q-9.143 0-9.143 9.143v54.857q0 9.143 9.143 9.143h54.857q9.143 0 9.143-9.143z m219.429-146.286V320q0-9.143-9.143-9.143h-54.857q-9.143 0-9.143 9.143v54.857q0 9.143 9.143 9.143h54.857q9.143 0 9.143-9.143z m219.428-146.286v-54.857q0-9.143-9.143-9.143h-54.857q-9.143 0-9.143 9.143v54.857q0 9.143 9.143 9.143h54.857q9.143 0 9.143-9.143zM658.286 521.143v-54.857q0-9.143-9.143-9.143h-54.857q-9.143 0-9.143 9.143v54.857q0 9.143 9.143 9.143h54.857q9.143 0 9.143-9.143z m146.285 0v-54.857q0-9.143-9.143-9.143h-54.857q-9.143 0-9.143 9.143v54.857q0 9.143 9.143 9.143h54.857q9.143 0 9.143-9.143z m146.286 0V320q0-9.143-9.143-9.143h-128q-9.143 0-9.143 9.143v54.857q0 9.143 9.143 9.143h64V521.143q0 9.143 9.143 9.143h54.857q9.143 0 9.143-9.143zM1024 91.429v512H73.143v-512H1024z m73.143 512v-512q0-30.286-21.429-51.714T1024 18.286H73.143q-30.286 0-51.714 21.429T0 91.429v512q0 30.286 21.429 51.714t51.714 21.429H1024q30.286 0 51.714-21.429t21.429-51.714z"  horiz-adv-x="1097" />

    
    <glyph glyph-name="info_sign" unicode="&#58913;" d="M667.42871429 109.71400000000006v91.429q0 8-5.143 13.143t-13.143 5.143H594.28571429V512q0 8-5.143 13.143t-13.143 5.143H393.14271429q-8 0-13.143-5.143T374.85671429 512v-91.429q0-8 5.143-13.143t13.143-5.143h54.857v-182.857h-54.857q-8 0-13.143-5.143t-5.143-13.143v-91.429q0-8 5.143-13.143t13.143-5.143h256q8 0 13.143 5.143t5.143 13.143z m-73.143 512v91.429q0 8-5.143 13.143t-13.143 5.143H466.28571429q-8 0-13.143-5.143t-5.143-13.143v-91.429q0-8 5.143-13.143T466.28571429 603.428h109.714q8 0 13.143 5.143T594.28571429 621.7139999999999zM959.99971429 384q0-119.429-58.857-220.286T741.42871429 4t-220.286-58.857T300.85671429 4 141.14271429 163.71400000000006 82.28571429 384t58.857 220.286T300.85671429 764t220.286 58.857T741.42871429 764t159.714-159.714T959.99971429 384z"  horiz-adv-x="1024" />

    
    <glyph glyph-name="jujin" unicode="&#58919;" d="M826.91656259 4972.85584361m-503.86650012-5e-8a503.86650199 503.86650199 0 1 1 1007.7330021 0 503.86650199 503.86650199 0 1 1-1007.7330021 0ZM700.11016127 593.1341741599999l67.18219999-67.18219999-248.57414085-188.11016126-248.57414087 188.11016126 67.18220002 67.18219999 181.39194085-127.64618167 181.39194086 127.64618167z m154.51905921-147.80084084l67.1822-60.46397961 6.71822043-6.71822042-403.0932001-309.03812045-403.09320209 309.03812045 67.18219999 67.18220003 335.9110021-241.85592046 329.19277967 241.85592046z m-335.91100007 315.75634086l100.77330001-100.77330002-100.77330001-67.1822-100.7733 67.1822 100.7733 100.77330002zM1425.18425803 3333.45973307L859.87971634 3898.76427472H-401.18425803v-1826.36851606h1826.36851606V3333.45973307zM-270.72936444 2202.8506523200003V3768.3093811h1078.42712283l487.03160605-487.03160602V2202.8506523200003H-270.72936444z"  horiz-adv-x="1024" />

    
    <glyph glyph-name="jianshu" unicode="&#58920;" d="M648.2200001 1921.99999983H375.76000039C285.40000039 1921.99999983 240.26000029 1921.99999983 191.62000039 1906.59999964a191.00000039 191.00000039 0 0 1-114.20000068-114.23999971C62 1743.69999964 62 1698.55999954 62 1608.21999993V1335.80000012c0-90.42000029 0-135.54 15.4000002-184.1799999a191.05999981 191.05999981 0 0 1 114.2399997-114.22000019c48.62000039-15.4000002 93.78-15.4000002 184.12000049-15.4000002H648.19999971c90.3999999 0 135.5000001 0 184.14 15.4000002a191.13999961 191.13999961 0 0 1 114.26000009 114.22000019c15.4000002 48.62000039 15.4000002 93.78 15.4000002 184.15999951V1608.21999993c0 90.33999961 0 135.5000001-15.4000002 184.14A191.1999999 191.1999999 0 0 1 832.33999971 1906.6200000200001C783.7600001 1921.99999983 738.59999961 1921.99999983 648.2200001 1921.99999983zM249.56 436.1600001h67.34000039V84.00000029H249.56zM287.51999961 543.12c16.8800001-31.29999961 27.83999971-62.6000001 32.88000059-93.89999971h73.36000019c-10.1199999 39.9999999-22.7599998 71.30000039-37.92000058 93.89999971h-68.3200002zM432.3399998 605.7200001h80.9600001V650.0799999h-146.71999951c1.68000029 3.48000029 4.2199998 9.54 7.57999951 18.25999981 1.69999981 6.94000019 3.39999961 12.1399998 5.06000039 15.66h-75.88000019c-11.80000019-46.95999961-38.76000029-81.78000029-80.93999971-104.3600001v-44.33999941c55.64000039 13.8999999 95.28000029 37.37999971 118.8799998 70.4199999h25.3000002c8.4200001-22.6000002 13.5-44.35999981 15.1999998-65.22000029h70.81999981c-5.1199998 24.3399999-11.8400001 46.08-20.2600002 65.22000029zM399.43999971 464.84000039h304.8800001v-286.96000078c1.69999981-26.07999961-10.10000039-38.2399998-35.4200001-36.49999922h-41.81999942v-52.18000049h60.71999942c59.01999961-1.7200002 87.68000039 25.2399999 85.98000058 80.88000029V517.0400003899999H399.43999971v-52.2zM637.21999971 417.90000029H389.3199998V154.39999981000005h172.02000059c53.9600001-1.7200002 79.26000029 24.3799998 75.87999932 78.26000009v185.24000039z m-179.57999971-46.94000009h111.2799999v-60.0000003h-111.2799999v60.00000029z m78.40000019-169.5800004h-78.40000019V266.6000001h111.2799999v-31.32c1.68000029-24.36000029-9.2599998-35.64-32.87999971-33.90000029zM639.7600001 652.67999971c0 1.7200002 0.83999971 4.32 2.53999951 7.84000019l7.58000039 23.47999981H573.9999998c-11.81999971-48.7000002-37.9400001-85.2199998-78.44000009-109.55999971v-41.73999961c52.2799998 13.92000029 91.9400001 38.2399998 118.90000019 73.03999922h35.4200001c8.43999961-22.6000002 13.47999961-44.35999981 15.1999998-65.21999942h68.25999991c-1.68000029 17.35999981-8.4200001 39.12000029-20.23999981 65.21999942h88.54000049V652.67999971h-161.88000029z"  horiz-adv-x="1024" />

    
    <glyph glyph-name="zhihu" unicode="&#58921;" d="M568.48696593 1279.28497334h-78.82420194c-277.47650279 0-504.50273258 227.02622978-504.50273258 504.50273258v78.82420193c0 277.47650279 227.02622978 504.50273258 504.50273258 504.50273258h78.82420194c277.47650279 0 504.50273258-227.02622978 504.50273256-504.50273258v-78.82420193c-0.00124276-277.47650279-227.02747253-504.50273258-504.50273256-504.50273258zM531.22707871 444.73804435h-102.09718726c1.61540293 16.15527086 5.81544982 60.09547071 5.81544983 84.97391693 0 24.87844622-0.32308034 60.74163139-0.32308034 60.7416326h102.74334794v16.15527087c0 21.64764035-9.36933603 31.34005794-17.12451188 31.34005793H341.57008659s5.16928914 17.7706738 10.01549794 36.18626552c4.8462088 18.41683449 15.83219052 44.26328018 15.83219053 44.2632802-63.00319622-4.2000469-67.95751273-50.94110732-81.74311106-92.72785003-13.78559954-41.78674393-24.55536587-62.35703433-44.58636175-107.91263709 27.78617173 0 55.24926191 13.56938414 66.88016278 32.30929896 11.63090087 18.73991604 16.90829771 40.70939397 16.90829772 40.70939399h62.03395397v-59.01812198c0-21.10834461-3.87696655-87.45045439-3.87696654-87.45045319h-110.71349768c-19.38607673 0-29.72465501-48.89451634-29.72465501-48.89451633h133.76032556c-8.40009501-75.81955353-26.49384914-106.19036923-51.91034834-152.71521424-25.4164992-46.52608656-92.72785123-99.40567715-92.72785124-99.40567716 41.03247431-11.63090087 86.58931985 3.55388621 105.97415382 21.97072192 19.38607673 18.41683449 35.86318518 49.75689243 47.81840914 72.83851384 11.95398122 23.08162143 21.97072069 65.12310135 21.97072192 65.12310136l108.55879777-134.0834059s4.8462088 24.23228553 6.46161174 39.41707138c1.61540293 15.18602983-0.75426838 26.38574145-4.63123615 35.4332399-3.87696655 9.04625569-15.50786742 21.53953265-31.01697639 39.633288-15.50786742 18.09375414-48.03338179 52.87959059-48.0333818 52.8795906s-15.83219052-11.63090087-28.10925207-21.00147967c9.04625569 21.97072069 16.26213581 79.69652007 16.2621358 79.69652008h122.34439734v20.24721005c0.00248551 17.66008059-7.32025955 29.29098145-18.09002588 29.29098146zM818.56499461 645.48664039H584.214777a4.30815459 4.30815459 0 0 1-4.3081558-4.30815461v-435.09881362a4.30815459 4.30815459 0 0 1 4.3081558-4.3081558h40.22601623l14.70016535-50.40305312 81.09570761 50.40305312h98.32832842a4.30815459 4.30815459 0 0 1 4.30815458 4.3081558V641.17848578a4.30815459 4.30815459 0 0 1-4.30815458 4.30815461zM773.54744481 251.52840998h-52.34153638l-61.5480907-39.09399225-10.82320002 39.09399225h-18.73991483V597.8844466400001h143.4539847V251.52840998z"  horiz-adv-x="1024" />

    


  </font>
</defs>
</svg>
